<svg xmlns="http://www.w3.org/2000/svg" viewBox="0 0 48 48" width="48" height="48">
  <defs>
    <linearGradient id="gi" x1="0" y1="0" x2="1" y2="1">
      <stop offset="0%" stop-color="#0D9488"/>
      <stop offset="100%" stop-color="#0891B2"/>
    </linearGradient>
  </defs>
  <polygon points="24,3 42,13.5 42,34.5 24,45 6,34.5 6,13.5"
    fill="none" stroke="url(#gi)" stroke-width="1.5"/>
  <line x1="24" y1="3"    x2="24"   y2="21"   stroke="#0D9488" stroke-width="1" opacity="0.45"/>
  <line x1="42" y1="13.5" x2="26.6" y2="22.2" stroke="#0D9488" stroke-width="1" opacity="0.45"/>
  <line x1="42" y1="34.5" x2="26.6" y2="25.8" stroke="#0891B2" stroke-width="1" opacity="0.45"/>
  <line x1="24" y1="45"   x2="24"   y2="27"   stroke="#0891B2" stroke-width="1" opacity="0.45"/>
  <line x1="6"  y1="34.5" x2="21.4" y2="25.8" stroke="#0891B2" stroke-width="1" opacity="0.45"/>
  <line x1="6"  y1="13.5" x2="21.4" y2="22.2" stroke="#0D9488" stroke-width="1" opacity="0.45"/>
  <circle cx="24" cy="24" r="3" fill="url(#gi)"/>
  <circle cx="24" cy="3"    r="2.2" fill="#0D9488"/>
  <circle cx="42" cy="13.5" r="2.2" fill="#0D9488"/>
  <circle cx="42" cy="34.5" r="2.2" fill="#0891B2"/>
  <circle cx="24" cy="45"   r="2.2" fill="#0891B2"/>
  <circle cx="6"  cy="34.5" r="2.2" fill="#0891B2"/>
  <circle cx="6"  cy="13.5" r="2.2" fill="#0D9488"/>
</svg>
